<mxfile host="app.diagrams.net" agent="Mozilla/5.0 (Windows NT 10.0; Win64; x64) AppleWebKit/537.36 (KHTML, like Gecko) Chrome/128.0.0.0 Safari/537.36" version="24.7.7">
  <diagram id="C5RBs43oDa-KdzZeNtuy" name="Page-1">
    <mxGraphModel dx="1434" dy="780" grid="1" gridSize="10" guides="1" tooltips="1" connect="1" arrows="1" fold="1" page="1" pageScale="1" pageWidth="827" pageHeight="1169" math="0" shadow="0">
      <root>
        <mxCell id="WIyWlLk6GJQsqaUBKTNV-0" />
        <mxCell id="WIyWlLk6GJQsqaUBKTNV-1" parent="WIyWlLk6GJQsqaUBKTNV-0" />
        <mxCell id="ogkn3nqbPo5O1q_PO7xc-15" value="" style="edgeStyle=orthogonalEdgeStyle;rounded=0;orthogonalLoop=1;jettySize=auto;html=1;" parent="WIyWlLk6GJQsqaUBKTNV-1" source="WIyWlLk6GJQsqaUBKTNV-3" target="ogkn3nqbPo5O1q_PO7xc-14" edge="1">
          <mxGeometry relative="1" as="geometry" />
        </mxCell>
        <mxCell id="WIyWlLk6GJQsqaUBKTNV-3" value="Create empty mySave variable" style="rounded=1;whiteSpace=wrap;html=1;fontSize=12;glass=0;strokeWidth=1;shadow=0;" parent="WIyWlLk6GJQsqaUBKTNV-1" vertex="1">
          <mxGeometry x="120" y="120" width="120" height="40" as="geometry" />
        </mxCell>
        <mxCell id="ogkn3nqbPo5O1q_PO7xc-4" value="LoadGame function" style="rounded=0;whiteSpace=wrap;html=1;" parent="WIyWlLk6GJQsqaUBKTNV-1" vertex="1">
          <mxGeometry x="120" y="40" width="120" height="40" as="geometry" />
        </mxCell>
        <mxCell id="TE2q3S_GyHBpz-gPKg_0-25" style="edgeStyle=orthogonalEdgeStyle;rounded=0;orthogonalLoop=1;jettySize=auto;html=1;exitX=0.5;exitY=1;exitDx=0;exitDy=0;entryX=0.5;entryY=0;entryDx=0;entryDy=0;" edge="1" parent="WIyWlLk6GJQsqaUBKTNV-1" source="ogkn3nqbPo5O1q_PO7xc-14" target="ogkn3nqbPo5O1q_PO7xc-18">
          <mxGeometry relative="1" as="geometry" />
        </mxCell>
        <mxCell id="ogkn3nqbPo5O1q_PO7xc-14" value="Create empty loadSave variable" style="whiteSpace=wrap;html=1;rounded=1;glass=0;strokeWidth=1;shadow=0;" parent="WIyWlLk6GJQsqaUBKTNV-1" vertex="1">
          <mxGeometry x="120" y="200" width="120" height="40" as="geometry" />
        </mxCell>
        <mxCell id="TE2q3S_GyHBpz-gPKg_0-26" value="" style="edgeStyle=orthogonalEdgeStyle;rounded=0;orthogonalLoop=1;jettySize=auto;html=1;" edge="1" parent="WIyWlLk6GJQsqaUBKTNV-1" source="ogkn3nqbPo5O1q_PO7xc-18" target="ogkn3nqbPo5O1q_PO7xc-23">
          <mxGeometry relative="1" as="geometry" />
        </mxCell>
        <mxCell id="ogkn3nqbPo5O1q_PO7xc-18" value="Load the game from slot into loadSave" style="rounded=1;whiteSpace=wrap;html=1;" parent="WIyWlLk6GJQsqaUBKTNV-1" vertex="1">
          <mxGeometry x="120" y="280" width="120" height="40" as="geometry" />
        </mxCell>
        <mxCell id="TE2q3S_GyHBpz-gPKg_0-27" value="" style="edgeStyle=orthogonalEdgeStyle;rounded=0;orthogonalLoop=1;jettySize=auto;html=1;" edge="1" parent="WIyWlLk6GJQsqaUBKTNV-1" source="ogkn3nqbPo5O1q_PO7xc-23" target="TE2q3S_GyHBpz-gPKg_0-11">
          <mxGeometry relative="1" as="geometry" />
        </mxCell>
        <mxCell id="ogkn3nqbPo5O1q_PO7xc-23" value="cast loadSave to mySave" style="rounded=1;whiteSpace=wrap;html=1;" parent="WIyWlLk6GJQsqaUBKTNV-1" vertex="1">
          <mxGeometry x="100" y="350" width="160" height="40" as="geometry" />
        </mxCell>
        <mxCell id="ogkn3nqbPo5O1q_PO7xc-33" value="saveGame function" style="rounded=0;whiteSpace=wrap;html=1;" parent="WIyWlLk6GJQsqaUBKTNV-1" vertex="1">
          <mxGeometry x="400" y="40" width="120" height="40" as="geometry" />
        </mxCell>
        <mxCell id="ogkn3nqbPo5O1q_PO7xc-36" value="" style="edgeStyle=orthogonalEdgeStyle;rounded=0;orthogonalLoop=1;jettySize=auto;html=1;" parent="WIyWlLk6GJQsqaUBKTNV-1" source="ogkn3nqbPo5O1q_PO7xc-34" target="ogkn3nqbPo5O1q_PO7xc-35" edge="1">
          <mxGeometry relative="1" as="geometry" />
        </mxCell>
        <mxCell id="ogkn3nqbPo5O1q_PO7xc-34" value="Create newSave variable" style="rounded=1;whiteSpace=wrap;html=1;" parent="WIyWlLk6GJQsqaUBKTNV-1" vertex="1">
          <mxGeometry x="400" y="120" width="120" height="40" as="geometry" />
        </mxCell>
        <mxCell id="TE2q3S_GyHBpz-gPKg_0-8" style="edgeStyle=orthogonalEdgeStyle;rounded=0;orthogonalLoop=1;jettySize=auto;html=1;exitX=0.5;exitY=1;exitDx=0;exitDy=0;entryX=0.5;entryY=0;entryDx=0;entryDy=0;" edge="1" parent="WIyWlLk6GJQsqaUBKTNV-1" source="ogkn3nqbPo5O1q_PO7xc-35" target="TE2q3S_GyHBpz-gPKg_0-0">
          <mxGeometry relative="1" as="geometry" />
        </mxCell>
        <mxCell id="ogkn3nqbPo5O1q_PO7xc-35" value="Cast newSave to mySave" style="whiteSpace=wrap;html=1;rounded=1;" parent="WIyWlLk6GJQsqaUBKTNV-1" vertex="1">
          <mxGeometry x="400" y="200" width="120" height="40" as="geometry" />
        </mxCell>
        <mxCell id="ogkn3nqbPo5O1q_PO7xc-43" value="Save MyProjectSaveGame to slot" style="rounded=1;whiteSpace=wrap;html=1;" parent="WIyWlLk6GJQsqaUBKTNV-1" vertex="1">
          <mxGeometry x="390" y="520" width="140" height="40" as="geometry" />
        </mxCell>
        <mxCell id="jViTt13gUSBcXbafGttR-3" value="" style="endArrow=none;html=1;rounded=0;" parent="WIyWlLk6GJQsqaUBKTNV-1" edge="1">
          <mxGeometry width="50" height="50" relative="1" as="geometry">
            <mxPoint x="320" y="680" as="sourcePoint" />
            <mxPoint x="320" as="targetPoint" />
          </mxGeometry>
        </mxCell>
        <mxCell id="TE2q3S_GyHBpz-gPKg_0-3" style="edgeStyle=orthogonalEdgeStyle;rounded=0;orthogonalLoop=1;jettySize=auto;html=1;exitX=0.5;exitY=1;exitDx=0;exitDy=0;entryX=0.5;entryY=0;entryDx=0;entryDy=0;" edge="1" parent="WIyWlLk6GJQsqaUBKTNV-1" source="TE2q3S_GyHBpz-gPKg_0-0" target="TE2q3S_GyHBpz-gPKg_0-1">
          <mxGeometry relative="1" as="geometry" />
        </mxCell>
        <mxCell id="TE2q3S_GyHBpz-gPKg_0-0" value="Check validity of mySave" style="rounded=1;whiteSpace=wrap;html=1;" vertex="1" parent="WIyWlLk6GJQsqaUBKTNV-1">
          <mxGeometry x="400" y="280" width="120" height="40" as="geometry" />
        </mxCell>
        <mxCell id="TE2q3S_GyHBpz-gPKg_0-5" style="edgeStyle=orthogonalEdgeStyle;rounded=0;orthogonalLoop=1;jettySize=auto;html=1;exitX=0.5;exitY=1;exitDx=0;exitDy=0;entryX=0.5;entryY=0;entryDx=0;entryDy=0;" edge="1" parent="WIyWlLk6GJQsqaUBKTNV-1" source="TE2q3S_GyHBpz-gPKg_0-1" target="TE2q3S_GyHBpz-gPKg_0-2">
          <mxGeometry relative="1" as="geometry" />
        </mxCell>
        <mxCell id="TE2q3S_GyHBpz-gPKg_0-1" value="Set Highscore" style="rounded=1;whiteSpace=wrap;html=1;" vertex="1" parent="WIyWlLk6GJQsqaUBKTNV-1">
          <mxGeometry x="400" y="360" width="120" height="40" as="geometry" />
        </mxCell>
        <mxCell id="TE2q3S_GyHBpz-gPKg_0-6" style="edgeStyle=orthogonalEdgeStyle;rounded=0;orthogonalLoop=1;jettySize=auto;html=1;exitX=0.5;exitY=1;exitDx=0;exitDy=0;entryX=0.5;entryY=0;entryDx=0;entryDy=0;" edge="1" parent="WIyWlLk6GJQsqaUBKTNV-1" source="TE2q3S_GyHBpz-gPKg_0-2" target="ogkn3nqbPo5O1q_PO7xc-43">
          <mxGeometry relative="1" as="geometry" />
        </mxCell>
        <mxCell id="TE2q3S_GyHBpz-gPKg_0-2" value="Set LastPlayerPosition" style="rounded=1;whiteSpace=wrap;html=1;" vertex="1" parent="WIyWlLk6GJQsqaUBKTNV-1">
          <mxGeometry x="390" y="440" width="140" height="40" as="geometry" />
        </mxCell>
        <mxCell id="TE2q3S_GyHBpz-gPKg_0-14" value="" style="edgeStyle=orthogonalEdgeStyle;rounded=0;orthogonalLoop=1;jettySize=auto;html=1;" edge="1" parent="WIyWlLk6GJQsqaUBKTNV-1" source="TE2q3S_GyHBpz-gPKg_0-11" target="TE2q3S_GyHBpz-gPKg_0-13">
          <mxGeometry relative="1" as="geometry" />
        </mxCell>
        <mxCell id="TE2q3S_GyHBpz-gPKg_0-11" value="Get Highscore from mySave" style="whiteSpace=wrap;html=1;rounded=1;glass=0;strokeWidth=1;shadow=0;" vertex="1" parent="WIyWlLk6GJQsqaUBKTNV-1">
          <mxGeometry x="120" y="440" width="120" height="40" as="geometry" />
        </mxCell>
        <mxCell id="TE2q3S_GyHBpz-gPKg_0-13" value="Get LastPlayerLocation from mySave" style="whiteSpace=wrap;html=1;rounded=1;glass=0;strokeWidth=1;shadow=0;" vertex="1" parent="WIyWlLk6GJQsqaUBKTNV-1">
          <mxGeometry x="110" y="520" width="140" height="40" as="geometry" />
        </mxCell>
      </root>
    </mxGraphModel>
  </diagram>
</mxfile>
